<svg aria-hidden="true" version="1.1" xmlns="http://www.w3.org/2000/svg" xmlns:xlink="http://www.w3.org/1999/xlink" class="svg">    
    <defs>
        <symbol id="front-end" viewBox="0 0 172 172">
            <path class="path" stroke="#000000" stroke-width=".5" d="M10.32,10.32c-5.65719,0 -10.32,4.66281 -10.32,10.32v141.04h172v-141.04c0,-5.65719 -4.66281,-10.32 -10.32,-10.32zM10.32,17.2h151.36c1.94844,0 3.44,1.49156 3.44,3.44v10.32h-158.24v-10.32c0,-1.94844 1.49156,-3.44 3.44,-3.44zM6.88,37.84h158.24v116.96h-158.24zM99.4375,51.4925c-0.14781,0.02688 -0.29562,0.06719 -0.43,0.1075c-1.12875,0.25531 -2.06937,1.06156 -2.4725,2.15l-30.96,75.68c-0.71219,1.78719 0.14781,3.80281 1.935,4.515c1.78719,0.71219 3.80281,-0.14781 4.515,-1.935l30.96,-75.68c0.51063,-1.12875 0.37625,-2.45906 -0.36281,-3.45344c-0.72562,-1.00781 -1.94844,-1.53188 -3.18469,-1.38406zM54.825,72.1325c-0.1075,0.02688 -0.215,0.06719 -0.3225,0.1075c-0.41656,0.06719 -0.81969,0.215 -1.1825,0.43l-24.08,13.76c-1.08844,0.60469 -1.77375,1.76031 -1.77375,3.01c0,1.24969 0.68531,2.40531 1.77375,3.01l24.08,13.76c1.66625,0.95406 3.77594,0.37625 4.73,-1.29c0.95406,-1.66625 0.37625,-3.77594 -1.29,-4.73l-18.8125,-10.75l18.8125,-10.75c1.6125,-0.68531 2.45906,-2.45906 1.96188,-4.13875c-0.49719,-1.67969 -2.17688,-2.72781 -3.89688,-2.41875zM116.315,72.24c-1.46469,0.22844 -2.63375,1.37063 -2.87562,2.83531c-0.24188,1.46469 0.48375,2.92937 1.80062,3.61469l18.8125,10.75l-18.8125,10.75c-1.66625,0.95406 -2.24406,3.06375 -1.29,4.73c0.95406,1.66625 3.06375,2.24406 4.73,1.29l24.08,-13.76c1.08844,-0.60469 1.77375,-1.76031 1.77375,-3.01c0,-1.24969 -0.68531,-2.40531 -1.77375,-3.01l-24.08,-13.76c-0.71219,-0.41656 -1.54531,-0.57781 -2.365,-0.43z"></path>
        </symbol>
        <symbol id="back-end" viewBox="0 0 172 172">
           <path d="M137.9225,0c-1.02125,0.13438 -1.935,0.72563 -2.4725,1.6125l-5.59,9.245c-1.74687,-0.13437 -3.53406,-0.14781 -5.2675,0l-5.6975,-9.1375c-0.91375,-1.43781 -2.74125,-1.98875 -4.3,-1.29l-9.675,4.085c-1.57219,0.645 -2.43219,2.32469 -2.0425,3.9775l2.365,10.4275c-1.31687,1.14219 -2.51281,2.40531 -3.655,3.7625l-10.535,-2.365c-1.63937,-0.3225 -3.27875,0.59125 -3.87,2.15l-3.9775,9.675c-0.69875,1.55875 -0.14781,3.38625 1.29,4.3l9.1375,5.6975c-0.12094,1.76031 -0.14781,3.53406 0,5.2675l-9.03,5.6975c-1.43781,0.91375 -1.98875,2.74125 -1.29,4.3l4.085,9.675c0.63156,1.51844 2.2575,2.37844 3.87,2.0425l10.535,-2.365c1.14219,1.31688 2.40531,2.51281 3.7625,3.655l-2.365,10.535c-0.33594,1.6125 0.52406,3.23844 2.0425,3.87l9.7825,3.9775c1.53188,0.63156 3.29219,0.09406 4.1925,-1.29l5.805,-9.1375c1.80063,0.12094 3.60125,0.05375 5.375,-0.1075l5.805,9.1375c0.90031,1.38406 2.66063,1.92156 4.1925,1.29l9.7825,-4.085c1.51844,-0.68531 2.33813,-2.35156 1.935,-3.9775l-2.58,-10.535c1.29,-1.11531 2.53969,-2.33812 3.655,-3.655l10.6425,2.2575c1.67969,0.37625 3.37281,-0.5375 3.9775,-2.15l3.9775,-9.675c0.67188,-1.58562 0.08063,-3.41312 -1.3975,-4.3l-9.245,-5.6975c0.12094,-1.70656 0.02688,-3.37281 -0.1075,-5.0525l9.1375,-6.02c1.42438,-0.87344 2.01563,-2.64719 1.3975,-4.1925l-4.1925,-9.675c-0.645,-1.57219 -2.32469,-2.43219 -3.9775,-2.0425l-10.4275,2.58c-1.15562,-1.34375 -2.39187,-2.60687 -3.7625,-3.7625l2.2575,-10.535c0.38969,-1.65281 -0.47031,-3.3325 -2.0425,-3.9775l-9.7825,-3.9775c-0.55094,-0.215 -1.14219,-0.29563 -1.72,-0.215zM139.75,7.74l4.4075,1.8275l-2.0425,9.5675c-0.26875,1.30344 0.22844,2.63375 1.29,3.44c2.21719,1.62594 4.11188,3.56094 5.6975,5.6975c0.83313,1.14219 2.28438,1.65281 3.655,1.29l9.46,-2.365l1.8275,4.4075l-8.2775,5.375c-1.14219,0.7525 -1.73344,2.09625 -1.505,3.44c0.40313,2.62031 0.38969,5.25406 0,7.955c-0.20156,1.37063 0.43,2.71438 1.6125,3.44l8.385,5.16l-1.8275,4.3l-9.5675,-2.0425c-1.35719,-0.29562 -2.75469,0.25531 -3.5475,1.3975c-1.59906,2.20375 -3.46687,4.09844 -5.59,5.6975c-1.10187,0.81969 -1.59906,2.21719 -1.29,3.5475l2.365,9.5675l-4.4075,1.8275l-5.375,-8.2775c-0.72562,-1.1825 -2.06937,-1.81406 -3.44,-1.6125c-2.60687,0.43 -5.24062,0.48375 -7.955,0.1075c-1.37062,-0.20156 -2.71437,0.43 -3.44,1.6125l-5.2675,8.2775l-4.4075,-1.8275l2.15,-9.46c0.30906,-1.33031 -0.18812,-2.72781 -1.29,-3.5475c-2.21719,-1.6125 -4.20594,-3.45344 -5.805,-5.59c-0.80625,-1.06156 -2.13656,-1.55875 -3.44,-1.29l-9.46,2.15l-1.935,-4.515l8.17,-5.0525c1.1825,-0.72562 1.81406,-2.06937 1.6125,-3.44c-0.43,-2.66062 -0.49719,-5.44219 -0.1075,-8.17c0.16125,-1.33031 -0.47031,-2.63375 -1.6125,-3.3325l-8.17,-5.16l1.8275,-4.4075l9.3525,2.0425c1.33031,0.30906 2.72781,-0.18812 3.5475,-1.29c1.63938,-2.23062 3.5475,-4.1925 5.6975,-5.805c1.06156,-0.80625 1.55875,-2.13656 1.29,-3.44l-2.15,-9.46l4.4075,-1.8275l5.16,8.17c0.7525,1.14219 2.09625,1.73344 3.44,1.505c2.63375,-0.41656 5.34813,-0.40312 8.0625,0c1.37063,0.20156 2.71438,-0.43 3.44,-1.6125zM127.1725,27.09c-6.82625,0.1075 -13.30312,4.16563 -16.0175,10.8575c-3.62812,8.9225 0.7525,19.26938 9.675,22.8975c8.9225,3.62813 19.16188,-0.7525 22.79,-9.675c3.62813,-8.9225 -0.645,-19.16187 -9.5675,-22.79c-2.23062,-0.90031 -4.60906,-1.33031 -6.88,-1.29zM127.28,33.8625c1.38406,-0.01344 2.82188,0.30906 4.1925,0.86c5.4825,2.23063 8.03563,8.385 5.805,13.8675c-2.21719,5.46906 -8.385,8.03563 -13.8675,5.805c-5.4825,-2.23062 -8.03562,-8.385 -5.805,-13.8675c1.11531,-2.74125 3.19813,-4.74344 5.6975,-5.805c1.24969,-0.52406 2.59344,-0.84656 3.9775,-0.86zM49.3425,58.48c-1.46469,0.26875 -2.58,1.43781 -2.795,2.9025l-2.15,13.8675c-2.4725,0.7525 -4.8375,1.72 -7.095,2.9025l-11.5025,-8.17c-1.35719,-0.98094 -3.21156,-0.83312 -4.4075,0.3225l-9.46,9.46c-1.15562,1.19594 -1.30344,3.05031 -0.3225,4.4075l8.0625,11.5025c-1.1825,2.24406 -2.12312,4.63594 -2.9025,7.095l-13.8675,2.365c-1.65281,0.25531 -2.87562,1.66625 -2.9025,3.3325v13.33c-0.02687,1.67969 1.15563,3.13094 2.795,3.44l13.8675,2.365c0.77938,2.53969 1.77375,4.89125 3.01,7.2025l-8.17,11.395c-0.98094,1.35719 -0.83312,3.21156 0.3225,4.4075l9.46,9.46c1.19594,1.15563 3.05031,1.30344 4.4075,0.3225l11.5025,-8.0625c2.24406,1.1825 4.63594,2.13656 7.095,2.9025l2.2575,13.8675c0.26875,1.69313 1.73344,2.92938 3.44,2.9025h13.33c1.67969,0.02688 3.13094,-1.15562 3.44,-2.795l2.4725,-14.0825c2.43219,-0.76594 4.77031,-1.72 6.9875,-2.9025l11.61,8.17c1.35719,0.98094 3.21156,0.83313 4.4075,-0.3225l9.46,-9.46c1.15563,-1.19594 1.30344,-3.05031 0.3225,-4.4075l-8.2775,-11.61c1.16906,-2.24406 2.15,-4.52844 2.9025,-6.9875l14.0825,-2.365c1.63938,-0.30906 2.82188,-1.76031 2.795,-3.44v-13.33c-0.02687,-1.66625 -1.24969,-3.07719 -2.9025,-3.3325l-14.0825,-2.365c-0.7525,-2.40531 -1.63937,-4.68969 -2.795,-6.88l8.17,-11.7175c0.98094,-1.35719 0.83313,-3.21156 -0.3225,-4.4075l-9.46,-9.46c-1.19594,-1.15562 -3.05031,-1.30344 -4.4075,-0.3225l-11.5025,8.2775c-2.24406,-1.1825 -4.63594,-2.13656 -7.095,-2.9025l-2.365,-13.975c-0.26875,-1.69312 -1.73344,-2.92937 -3.44,-2.9025h-13.33c-0.1075,0 -0.215,0 -0.3225,0c-0.1075,0 -0.215,0 -0.3225,0zM52.9975,65.36h7.4175l2.2575,12.9c0.215,1.37063 1.23625,2.4725 2.58,2.795c3.44,0.86 6.71875,2.19031 9.675,3.9775c1.16906,0.71219 2.64719,0.67188 3.7625,-0.1075l10.6425,-7.6325l5.2675,5.2675l-7.525,10.8575c-0.81969,1.10188 -0.90031,2.58 -0.215,3.7625c1.77375,2.95625 3.1175,6.14094 3.9775,9.5675c0.3225,1.34375 1.42438,2.365 2.795,2.58l13.0075,2.15v7.4175l-13.0075,2.2575c-1.37062,0.215 -2.4725,1.23625 -2.795,2.58c-0.84656,3.42656 -2.20375,6.62469 -3.9775,9.5675c-0.72562,1.20938 -0.645,2.74125 0.215,3.87l7.6325,10.6425l-5.2675,5.2675l-10.75,-7.525c-1.11531,-0.77937 -2.59344,-0.81969 -3.7625,-0.1075c-2.92937,1.78719 -6.235,3.10406 -9.675,3.9775c-1.30344,0.36281 -2.27094,1.46469 -2.4725,2.795l-2.365,12.9h-7.525l-2.15,-12.9c-0.25531,-1.33031 -1.26312,-2.37844 -2.58,-2.6875c-3.45344,-0.84656 -6.70531,-2.29781 -9.675,-4.085c-1.15562,-0.63156 -2.58,-0.55094 -3.655,0.215l-10.75,7.4175l-5.2675,-5.2675l7.525,-10.535c0.83313,-1.14219 0.87344,-2.67406 0.1075,-3.87c-1.80062,-2.98312 -3.1175,-6.20812 -3.9775,-9.675c-0.3225,-1.34375 -1.42437,-2.365 -2.795,-2.58l-12.7925,-2.2575v-7.525l12.7925,-2.15c1.33031,-0.20156 2.43219,-1.16906 2.795,-2.4725c0.87344,-3.48031 2.17688,-6.79937 3.9775,-9.7825c0.71219,-1.16906 0.67188,-2.64719 -0.1075,-3.7625l-7.4175,-10.6425l5.2675,-5.375l10.6425,7.6325c1.11531,0.77938 2.59344,0.81969 3.7625,0.1075c2.95625,-1.77375 6.22156,-3.02344 9.675,-3.87c1.34375,-0.3225 2.365,-1.42437 2.58,-2.795zM56.76,94.0625c-11.67719,0 -21.1775,9.50031 -21.1775,21.1775c0,11.67719 9.50031,21.1775 21.1775,21.1775c11.67719,0 21.1775,-9.50031 21.1775,-21.1775c0,-11.67719 -9.50031,-21.1775 -21.1775,-21.1775zM56.76,100.9425c7.955,0 14.2975,6.3425 14.2975,14.2975c0,7.955 -6.3425,14.2975 -14.2975,14.2975c-7.955,0 -14.2975,-6.3425 -14.2975,-14.2975c0,-7.955 6.3425,-14.2975 14.2975,-14.2975z"></path>
        </symbol>
        <symbol id="tools" viewBox="0 0 172 172">
           <path d="M48.6975,6.665c-1.59906,0.17469 -2.84875,1.43781 -3.03687,3.03688c-0.17469,1.58562 0.76594,3.09062 2.28437,3.62812c0,0 13.0075,5.71094 28.595,22.0375c6.35594,6.665 9.54063,11.78469 10.535,15.1575c0.99438,3.37281 0.37625,4.71656 -1.1825,6.235c-0.24187,0.24188 -0.13437,0.13438 -0.215,0.215c-0.08062,0.08063 -0.22844,0.215 -0.43,0.43c-0.40312,0.41656 -1.075,1.1825 -2.2575,2.365c-0.43,0.43 -0.86,0.91375 -1.1825,1.3975l-71.4875,71.38c-3.69531,3.69531 -3.68187,9.74219 0,13.4375l12.9,12.9c3.69531,3.69531 9.74219,3.69531 13.4375,0l74.175,-74.0675l0.43,-0.43c0.16125,-0.16125 0.30906,-0.34937 0.43,-0.5375l3.5475,-3.5475c0.12094,0.18813 0.26875,0.37625 0.43,0.5375h0.215c0.04031,0.04031 0.06719,0.06719 0.1075,0.1075l4.085,4.1925c0.48375,0.48375 0.88688,1.59906 0.9675,2.9025c0.08063,1.30344 -0.3225,2.795 -0.3225,2.795c-0.48375,0.95406 -0.83312,2.02906 -0.86,3.225c-0.02687,1.19594 0.34938,2.60688 1.505,3.7625l11.9325,11.9325c3.69531,3.69531 9.74219,3.78938 13.4375,0.1075v-0.1075l19.0275,-18.92c3.69531,-3.69531 3.69531,-9.84969 0,-13.545l-11.9325,-11.9325c-1.77375,-1.77375 -4.54187,-2.00219 -6.5575,-0.9675c-0.02687,0.01344 -1.72,0.47031 -3.1175,0.43c-1.3975,-0.04031 -2.4725,-0.43 -2.9025,-0.86c-3.49375,-3.49375 -4.87781,-4.87781 -5.2675,-5.2675c1.08844,-1.59906 2.05594,-3.30562 2.0425,-5.16c0.01344,-2.43219 -0.94062,-4.91812 -2.795,-6.7725l-12.9,-12.9c-0.25531,-0.25531 -0.14781,-0.17469 -0.215,-0.215c-0.06719,-0.06719 -0.14781,-0.04031 -0.215,-0.1075c-6.53062,-6.53062 -13.27625,-13.39719 -14.835,-14.9425c-3.52062,-3.52062 -8.77469,-5.49594 -14.7275,-7.095c-5.95281,-1.59906 -12.685,-2.63375 -19.0275,-3.3325c-12.69844,-1.3975 -23.9725,-1.505 -23.9725,-1.505c-0.215,-0.02687 -0.43,-0.02687 -0.645,0zM62.6725,14.2975c4.00438,0.20156 4.66281,0.06719 9.89,0.645c6.1275,0.67188 12.53719,1.77375 17.9525,3.225c5.41531,1.45125 9.76906,3.42656 11.61,5.2675c1.55875,1.54531 8.46563,8.46563 15.05,15.05c0.06719,0.08063 0.13438,0.14781 0.215,0.215c0.20156,0.17469 0.30906,0.215 0.3225,0.215l12.685,12.685c0.52406,0.52406 0.7525,1.23625 0.7525,1.935c0,0.69875 -0.22844,1.41094 -0.7525,1.935c0,0 -0.86,0.84656 -1.29,2.2575c-0.26875,0.90031 -0.13437,2.23063 0.3225,3.44c0.04031,0.09406 0.06719,0.22844 0.1075,0.3225c0.08063,0.22844 0.18813,0.44344 0.3225,0.645c0.09406,0.18813 0.20156,0.36281 0.3225,0.5375c0.09406,0.12094 0.20156,0.22844 0.3225,0.3225c0.16125,0.16125 0.34938,0.30906 0.5375,0.43c0.29563,0.29563 1.67969,1.78719 5.2675,5.375c2.27094,2.27094 5.2675,2.83531 7.74,2.9025c2.09625,0.05375 3.74906,-0.3225 5.375,-0.9675c1.41094,1.41094 11.5025,11.5025 11.5025,11.5025c1.04813,1.04813 1.04813,2.71438 0,3.7625l-19.0275,18.92c-1.06156,1.04813 -2.71437,1.04813 -3.7625,0c0,0 -9.63469,-9.63469 -11.2875,-11.2875c0.83313,-1.80062 1.20938,-3.73562 1.075,-6.02c-0.14781,-2.40531 -0.83312,-5.13312 -3.01,-7.31l-4.73,-4.73c-0.04031,-0.04031 -0.06719,-0.06719 -0.1075,-0.1075c-0.04031,-0.04031 -0.06719,-0.06719 -0.1075,-0.1075c-0.37625,-0.43 -0.86,-0.76594 -1.3975,-0.9675c-1.19594,-0.7525 -2.51281,-1.30344 -3.87,-1.1825c-1.94844,0.16125 -3.30562,1.26313 -4.3,2.2575l-3.655,3.655c-0.12094,0.09406 -0.22844,0.20156 -0.3225,0.3225l-0.5375,0.43c-0.7525,0.7525 -1.505,1.31688 -1.8275,1.3975c-0.3225,0.08063 -0.3225,0.3225 -1.505,-0.86c-3.5475,-3.5475 -13.4375,-13.4375 -14.835,-14.835c-0.3225,-0.3225 -0.33594,-0.52406 -0.3225,-0.43c0.01344,0.09406 -0.24187,0.13438 0.43,-0.5375c0.13438,-0.13437 0.20156,-0.09406 0.3225,-0.215c0.08063,-0.06719 0.14781,-0.13437 0.215,-0.215c0.12094,-0.12094 0.1075,-0.215 0.215,-0.3225c0.08063,-0.1075 0.14781,-0.215 0.215,-0.3225c0.47031,-0.47031 1.14219,-1.03469 1.3975,-1.29c0.215,-0.22844 0.44344,-0.43 0.5375,-0.5375c0.01344,-0.02687 -0.01344,-0.08062 0,-0.1075c0.1075,-0.1075 0.12094,-0.14781 0.1075,-0.1075c2.98313,-3.05031 4.28656,-7.83406 2.795,-12.9c-1.51844,-5.16 -5.2675,-10.8575 -12.04,-17.9525c-7.08156,-7.4175 -13.55844,-12.5775 -18.92,-16.34zM82.4525,70.09c0.13438,0.16125 0.29563,0.29563 0.43,0.43c1.37063,1.35719 11.18,11.18 14.7275,14.7275c0.52406,0.52406 1.14219,0.91375 1.72,1.29l-67.51,67.51c-1.04812,1.04813 -2.71437,1.04813 -3.7625,0l-12.9,-12.9c-1.04812,-1.06156 -1.04812,-2.71437 0,-3.7625z"></path>
        </symbol>
    </defs>
</svg>